<svg width="276" height="176" viewBox="0 0 276 176" fill="none" xmlns="http://www.w3.org/2000/svg">
<g filter="url(#filter0_d_309_1405)">
<rect x="10" y="42" width="140" height="40" rx="20" fill="white" shape-rendering="crispEdges"/>
<path d="M58 58C58 56.8954 58.8954 56 60 56H96C97.1046 56 98 56.8954 98 58C98 59.1046 97.1046 60 96 60H60C58.8954 60 58 59.1046 58 58Z" fill="#977464"/>
<path d="M58 66C58 64.8954 58.8954 64 60 64H76C77.1046 64 78 64.8954 78 66C78 67.1046 77.1046 68 76 68H60C58.8954 68 58 67.1046 58 66Z" fill="#977464"/>
<rect x="18" y="50" width="24" height="24" rx="12" fill="url(#paint0_linear_309_1405)"/>
<path d="M34.2963 57.7866L28.0033 64.0796L25.7103 61.7866C25.318 61.4076 24.6943 61.413 24.3085 61.7988C23.9228 62.1845 23.9174 62.8082 24.2963 63.2006L27.2963 66.2006C27.6868 66.591 28.3198 66.591 28.7103 66.2006L35.7103 59.2006C36.0893 58.8082 36.0839 58.1845 35.6982 57.7988C35.3124 57.413 34.6887 57.4076 34.2963 57.7866Z" fill="white"/>
</g>
<defs>
<filter id="filter0_d_309_1405" x="0" y="0" width="276" height="176" filterUnits="userSpaceOnUse" color-interpolation-filters="sRGB">
<feFlood flood-opacity="0" result="BackgroundImageFix"/>
<feColorMatrix in="SourceAlpha" type="matrix" values="0 0 0 0 0 0 0 0 0 0 0 0 0 0 0 0 0 0 127 0" result="hardAlpha"/>
<feOffset dx="58" dy="26"/>
<feGaussianBlur stdDeviation="34"/>
<feComposite in2="hardAlpha" operator="out"/>
<feColorMatrix type="matrix" values="0 0 0 0 0.135417 0 0 0 0 0.173611 0 0 0 0 0.364583 0 0 0 0.06 0"/>
<feBlend mode="normal" in2="BackgroundImageFix" result="effect1_dropShadow_309_1405"/>
<feBlend mode="normal" in="SourceGraphic" in2="effect1_dropShadow_309_1405" result="shape"/>
</filter>
<linearGradient id="paint0_linear_309_1405" x1="18" y1="50" x2="42" y2="74" gradientUnits="userSpaceOnUse">
<stop stop-color="#ECD5CB"/>
<stop offset="1" stop-color="#59443B"/>
</linearGradient>
</defs>
</svg>
