<svg width="24" height="24" viewBox="0 0 24 24" fill="none" xmlns="http://www.w3.org/2000/svg">
<path d="M12.1062 2C6.63257 2 2.19531 6.47715 2.19531 12C2.19531 17.5228 6.63257 22 12.1062 22C17.5798 22 22.0171 17.5228 22.0171 12C22.0171 6.47715 17.5798 2 12.1062 2Z" fill="#CDCDD0"/>
<path fill-rule="evenodd" clip-rule="evenodd" d="M8.43091 8.29289C8.81795 7.90237 9.44548 7.90237 9.83252 8.29289L12.105 10.5858L14.3774 8.29289C14.7645 7.90237 15.392 7.90237 15.7791 8.29289C16.1661 8.68342 16.1661 9.31658 15.7791 9.70711L13.5066 12L15.7791 14.2929C16.1661 14.6834 16.1661 15.3166 15.7791 15.7071C15.392 16.0976 14.7645 16.0976 14.3774 15.7071L12.105 13.4142L9.83252 15.7071C9.44548 16.0976 8.81795 16.0976 8.43091 15.7071C8.04386 15.3166 8.04386 14.6834 8.43091 14.2929L10.7034 12L8.43091 9.70711C8.04386 9.31658 8.04386 8.68342 8.43091 8.29289Z" fill="#040415"/>
</svg>
